<mxfile host="app.diagrams.net" modified="2024-06-24T21:05:33.648Z" agent="Mozilla/5.0 (Windows NT 10.0; Win64; x64) AppleWebKit/537.36 (KHTML, like Gecko) Chrome/126.0.0.0 Safari/537.36" etag="g3jADf1Hf6ggcAwq5_af" version="24.6.2" type="google">
  <diagram name="Page-1" id="YmuNwA2Egod4diL8G_vw">
    <mxGraphModel grid="1" page="1" gridSize="10" guides="1" tooltips="1" connect="1" arrows="1" fold="1" pageScale="1" pageWidth="850" pageHeight="1100" math="0" shadow="0">
      <root>
        <mxCell id="0" />
        <mxCell id="1" parent="0" />
        <mxCell id="P8qwUpcXgBUsAU5qZX4Q-1" value="&lt;b style=&quot;&quot;&gt;&lt;i&gt;&lt;font style=&quot;font-size: 20px;&quot;&gt;Patron Null Object&lt;/font&gt;&lt;/i&gt;&lt;/b&gt;" style="text;html=1;align=center;verticalAlign=middle;resizable=0;points=[];autosize=1;strokeColor=none;fillColor=none;" vertex="1" parent="1">
          <mxGeometry x="-280" y="-3400" width="200" height="40" as="geometry" />
        </mxCell>
        <mxCell id="P8qwUpcXgBUsAU5qZX4Q-2" value="&lt;span style=&quot;font-size: 20px;&quot;&gt;&lt;b&gt;&lt;i&gt;ejercicio_21_GenealogiaSalvaje&lt;/i&gt;&lt;/b&gt;&lt;/span&gt;" style="text;html=1;align=center;verticalAlign=middle;resizable=0;points=[];autosize=1;strokeColor=none;fillColor=none;" vertex="1" parent="1">
          <mxGeometry x="305" y="-2280" width="330" height="40" as="geometry" />
        </mxCell>
        <mxCell id="P8qwUpcXgBUsAU5qZX4Q-90" value="&lt;&lt;Interface&gt;&gt;&#xa;Mamifero" style="swimlane;fontStyle=0;align=center;verticalAlign=top;childLayout=stackLayout;horizontal=1;startSize=40;horizontalStack=0;resizeParent=1;resizeLast=0;collapsible=1;marginBottom=0;rounded=0;shadow=0;strokeWidth=1;fillColor=#fff2cc;strokeColor=#d6b656;" vertex="1" parent="1">
          <mxGeometry y="-3300" width="400" height="440" as="geometry">
            <mxRectangle x="110" y="-20" width="160" height="26" as="alternateBounds" />
          </mxGeometry>
        </mxCell>
        <mxCell id="P8qwUpcXgBUsAU5qZX4Q-91" value="- " style="text;align=left;verticalAlign=top;spacingLeft=4;spacingRight=4;overflow=hidden;rotatable=0;points=[[0,0.5],[1,0.5]];portConstraint=eastwest;rounded=0;shadow=0;html=0;" vertex="1" parent="P8qwUpcXgBUsAU5qZX4Q-90">
          <mxGeometry y="40" width="400" height="24" as="geometry" />
        </mxCell>
        <mxCell id="P8qwUpcXgBUsAU5qZX4Q-93" value="" style="line;html=1;strokeWidth=1;align=left;verticalAlign=middle;spacingTop=-1;spacingLeft=3;spacingRight=3;rotatable=0;labelPosition=right;points=[];portConstraint=eastwest;" vertex="1" parent="P8qwUpcXgBUsAU5qZX4Q-90">
          <mxGeometry y="64" width="400" height="8" as="geometry" />
        </mxCell>
        <mxCell id="P8qwUpcXgBUsAU5qZX4Q-94" value="+ &lt;&lt;abstract&gt;&gt; getIdentificador(): String" style="text;align=left;verticalAlign=top;spacingLeft=4;spacingRight=4;overflow=hidden;rotatable=0;points=[[0,0.5],[1,0.5]];portConstraint=eastwest;rounded=0;shadow=0;html=0;" vertex="1" parent="P8qwUpcXgBUsAU5qZX4Q-90">
          <mxGeometry y="72" width="400" height="24" as="geometry" />
        </mxCell>
        <mxCell id="P8qwUpcXgBUsAU5qZX4Q-95" value="+ &lt;&lt;abstract&gt;&gt; setIdentificador(id: String)" style="text;align=left;verticalAlign=top;spacingLeft=4;spacingRight=4;overflow=hidden;rotatable=0;points=[[0,0.5],[1,0.5]];portConstraint=eastwest;rounded=0;shadow=0;html=0;" vertex="1" parent="P8qwUpcXgBUsAU5qZX4Q-90">
          <mxGeometry y="96" width="400" height="24" as="geometry" />
        </mxCell>
        <mxCell id="P8qwUpcXgBUsAU5qZX4Q-97" value="+ &lt;&lt;abstract&gt;&gt; getEspecie(): String" style="text;align=left;verticalAlign=top;spacingLeft=4;spacingRight=4;overflow=hidden;rotatable=0;points=[[0,0.5],[1,0.5]];portConstraint=eastwest;rounded=0;shadow=0;html=0;" vertex="1" parent="P8qwUpcXgBUsAU5qZX4Q-90">
          <mxGeometry y="120" width="400" height="24" as="geometry" />
        </mxCell>
        <mxCell id="P8qwUpcXgBUsAU5qZX4Q-98" value="+ &lt;&lt;abstract&gt;&gt; setEspecie(especie: String)" style="text;align=left;verticalAlign=top;spacingLeft=4;spacingRight=4;overflow=hidden;rotatable=0;points=[[0,0.5],[1,0.5]];portConstraint=eastwest;rounded=0;shadow=0;html=0;" vertex="1" parent="P8qwUpcXgBUsAU5qZX4Q-90">
          <mxGeometry y="144" width="400" height="24" as="geometry" />
        </mxCell>
        <mxCell id="P8qwUpcXgBUsAU5qZX4Q-102" value="+ &lt;&lt;abstract&gt;&gt; getFechaNacimiento(): Date" style="text;align=left;verticalAlign=top;spacingLeft=4;spacingRight=4;overflow=hidden;rotatable=0;points=[[0,0.5],[1,0.5]];portConstraint=eastwest;rounded=0;shadow=0;html=0;" vertex="1" parent="P8qwUpcXgBUsAU5qZX4Q-90">
          <mxGeometry y="168" width="400" height="24" as="geometry" />
        </mxCell>
        <mxCell id="P8qwUpcXgBUsAU5qZX4Q-99" value="+ &lt;&lt;abstract&gt;&gt; setFechaNacimiento(fecha: Date)" style="text;align=left;verticalAlign=top;spacingLeft=4;spacingRight=4;overflow=hidden;rotatable=0;points=[[0,0.5],[1,0.5]];portConstraint=eastwest;rounded=0;shadow=0;html=0;" vertex="1" parent="P8qwUpcXgBUsAU5qZX4Q-90">
          <mxGeometry y="192" width="400" height="24" as="geometry" />
        </mxCell>
        <mxCell id="P8qwUpcXgBUsAU5qZX4Q-101" value="+ &lt;&lt;abstract&gt;&gt; getPadre(): Mamifero" style="text;align=left;verticalAlign=top;spacingLeft=4;spacingRight=4;overflow=hidden;rotatable=0;points=[[0,0.5],[1,0.5]];portConstraint=eastwest;rounded=0;shadow=0;html=0;" vertex="1" parent="P8qwUpcXgBUsAU5qZX4Q-90">
          <mxGeometry y="216" width="400" height="24" as="geometry" />
        </mxCell>
        <mxCell id="P8qwUpcXgBUsAU5qZX4Q-124" value="+ &lt;&lt;abstract&gt;&gt; setPadre(padre: Mamifero)" style="text;align=left;verticalAlign=top;spacingLeft=4;spacingRight=4;overflow=hidden;rotatable=0;points=[[0,0.5],[1,0.5]];portConstraint=eastwest;rounded=0;shadow=0;html=0;" vertex="1" parent="P8qwUpcXgBUsAU5qZX4Q-90">
          <mxGeometry y="240" width="400" height="24" as="geometry" />
        </mxCell>
        <mxCell id="P8qwUpcXgBUsAU5qZX4Q-123" value="+ &lt;&lt;abstract&gt;&gt; getMadre(): Mamifero" style="text;align=left;verticalAlign=top;spacingLeft=4;spacingRight=4;overflow=hidden;rotatable=0;points=[[0,0.5],[1,0.5]];portConstraint=eastwest;rounded=0;shadow=0;html=0;" vertex="1" parent="P8qwUpcXgBUsAU5qZX4Q-90">
          <mxGeometry y="264" width="400" height="24" as="geometry" />
        </mxCell>
        <mxCell id="P8qwUpcXgBUsAU5qZX4Q-122" value="+ &lt;&lt;abstract&gt;&gt; setMadre(madre: Mamifero)" style="text;align=left;verticalAlign=top;spacingLeft=4;spacingRight=4;overflow=hidden;rotatable=0;points=[[0,0.5],[1,0.5]];portConstraint=eastwest;rounded=0;shadow=0;html=0;" vertex="1" parent="P8qwUpcXgBUsAU5qZX4Q-90">
          <mxGeometry y="288" width="400" height="24" as="geometry" />
        </mxCell>
        <mxCell id="P8qwUpcXgBUsAU5qZX4Q-121" value="+ &lt;&lt;abstract&gt;&gt; getAbueloMaterno(): Mamifero" style="text;align=left;verticalAlign=top;spacingLeft=4;spacingRight=4;overflow=hidden;rotatable=0;points=[[0,0.5],[1,0.5]];portConstraint=eastwest;rounded=0;shadow=0;html=0;" vertex="1" parent="P8qwUpcXgBUsAU5qZX4Q-90">
          <mxGeometry y="312" width="400" height="24" as="geometry" />
        </mxCell>
        <mxCell id="P8qwUpcXgBUsAU5qZX4Q-120" value="+ &lt;&lt;abstract&gt;&gt; getAbuelaMaterna(): Mamifero" style="text;align=left;verticalAlign=top;spacingLeft=4;spacingRight=4;overflow=hidden;rotatable=0;points=[[0,0.5],[1,0.5]];portConstraint=eastwest;rounded=0;shadow=0;html=0;" vertex="1" parent="P8qwUpcXgBUsAU5qZX4Q-90">
          <mxGeometry y="336" width="400" height="24" as="geometry" />
        </mxCell>
        <mxCell id="P8qwUpcXgBUsAU5qZX4Q-119" value="+ &lt;&lt;abstract&gt;&gt; getAbueloPaterno(): Mamifero" style="text;align=left;verticalAlign=top;spacingLeft=4;spacingRight=4;overflow=hidden;rotatable=0;points=[[0,0.5],[1,0.5]];portConstraint=eastwest;rounded=0;shadow=0;html=0;" vertex="1" parent="P8qwUpcXgBUsAU5qZX4Q-90">
          <mxGeometry y="360" width="400" height="24" as="geometry" />
        </mxCell>
        <mxCell id="P8qwUpcXgBUsAU5qZX4Q-118" value="+ &lt;&lt;abstract&gt;&gt; getAbuelaPaterna(): Mamifero" style="text;align=left;verticalAlign=top;spacingLeft=4;spacingRight=4;overflow=hidden;rotatable=0;points=[[0,0.5],[1,0.5]];portConstraint=eastwest;rounded=0;shadow=0;html=0;" vertex="1" parent="P8qwUpcXgBUsAU5qZX4Q-90">
          <mxGeometry y="384" width="400" height="24" as="geometry" />
        </mxCell>
        <mxCell id="P8qwUpcXgBUsAU5qZX4Q-100" value="+ &lt;&lt;abstract&gt;&gt; tieneComoAncestroA(unMamifero: Mamifero): Boolean&#xa;" style="text;align=left;verticalAlign=top;spacingLeft=4;spacingRight=4;overflow=hidden;rotatable=0;points=[[0,0.5],[1,0.5]];portConstraint=eastwest;rounded=0;shadow=0;html=0;" vertex="1" parent="P8qwUpcXgBUsAU5qZX4Q-90">
          <mxGeometry y="408" width="400" height="24" as="geometry" />
        </mxCell>
        <mxCell id="P8qwUpcXgBUsAU5qZX4Q-163" style="edgeStyle=orthogonalEdgeStyle;rounded=0;orthogonalLoop=1;jettySize=auto;html=1;endSize=12;startSize=12;endArrow=block;endFill=0;dashed=1;dashPattern=8 8;" edge="1" parent="1" source="P8qwUpcXgBUsAU5qZX4Q-125" target="P8qwUpcXgBUsAU5qZX4Q-90">
          <mxGeometry relative="1" as="geometry">
            <Array as="points">
              <mxPoint x="-20" y="-2820" />
              <mxPoint x="200" y="-2820" />
            </Array>
          </mxGeometry>
        </mxCell>
        <mxCell id="P8qwUpcXgBUsAU5qZX4Q-166" style="edgeStyle=orthogonalEdgeStyle;rounded=0;orthogonalLoop=1;jettySize=auto;html=1;endSize=12;startSize=12;" edge="1" parent="1" source="P8qwUpcXgBUsAU5qZX4Q-125" target="P8qwUpcXgBUsAU5qZX4Q-90">
          <mxGeometry relative="1" as="geometry">
            <Array as="points">
              <mxPoint x="-240" y="-2500" />
              <mxPoint x="-240" y="-3100" />
            </Array>
          </mxGeometry>
        </mxCell>
        <mxCell id="P8qwUpcXgBUsAU5qZX4Q-167" style="edgeStyle=orthogonalEdgeStyle;rounded=0;orthogonalLoop=1;jettySize=auto;html=1;endSize=12;startSize=12;" edge="1" parent="1" source="P8qwUpcXgBUsAU5qZX4Q-125" target="P8qwUpcXgBUsAU5qZX4Q-90">
          <mxGeometry relative="1" as="geometry">
            <Array as="points">
              <mxPoint x="-200" y="-2540" />
              <mxPoint x="-200" y="-3060" />
            </Array>
          </mxGeometry>
        </mxCell>
        <mxCell id="P8qwUpcXgBUsAU5qZX4Q-125" value="Mamifero" style="swimlane;fontStyle=0;align=center;verticalAlign=top;childLayout=stackLayout;horizontal=1;startSize=30;horizontalStack=0;resizeParent=1;resizeLast=0;collapsible=1;marginBottom=0;rounded=0;shadow=0;strokeWidth=1;fillColor=#fff2cc;strokeColor=#d6b656;" vertex="1" parent="1">
          <mxGeometry x="-160" y="-2780" width="320" height="480" as="geometry">
            <mxRectangle x="110" y="-20" width="160" height="26" as="alternateBounds" />
          </mxGeometry>
        </mxCell>
        <mxCell id="P8qwUpcXgBUsAU5qZX4Q-126" value="- id : String" style="text;align=left;verticalAlign=top;spacingLeft=4;spacingRight=4;overflow=hidden;rotatable=0;points=[[0,0.5],[1,0.5]];portConstraint=eastwest;rounded=0;shadow=0;html=0;" vertex="1" parent="P8qwUpcXgBUsAU5qZX4Q-125">
          <mxGeometry y="30" width="320" height="24" as="geometry" />
        </mxCell>
        <mxCell id="P8qwUpcXgBUsAU5qZX4Q-161" value="- especie : String" style="text;align=left;verticalAlign=top;spacingLeft=4;spacingRight=4;overflow=hidden;rotatable=0;points=[[0,0.5],[1,0.5]];portConstraint=eastwest;rounded=0;shadow=0;html=0;" vertex="1" parent="P8qwUpcXgBUsAU5qZX4Q-125">
          <mxGeometry y="54" width="320" height="24" as="geometry" />
        </mxCell>
        <mxCell id="P8qwUpcXgBUsAU5qZX4Q-162" value="- fechaDeNacimiento" style="text;align=left;verticalAlign=top;spacingLeft=4;spacingRight=4;overflow=hidden;rotatable=0;points=[[0,0.5],[1,0.5]];portConstraint=eastwest;rounded=0;shadow=0;html=0;" vertex="1" parent="P8qwUpcXgBUsAU5qZX4Q-125">
          <mxGeometry y="78" width="320" height="24" as="geometry" />
        </mxCell>
        <mxCell id="P8qwUpcXgBUsAU5qZX4Q-127" value="" style="line;html=1;strokeWidth=1;align=left;verticalAlign=middle;spacingTop=-1;spacingLeft=3;spacingRight=3;rotatable=0;labelPosition=right;points=[];portConstraint=eastwest;" vertex="1" parent="P8qwUpcXgBUsAU5qZX4Q-125">
          <mxGeometry y="102" width="320" height="8" as="geometry" />
        </mxCell>
        <mxCell id="P8qwUpcXgBUsAU5qZX4Q-128" value="+getIdentificador(): String" style="text;align=left;verticalAlign=top;spacingLeft=4;spacingRight=4;overflow=hidden;rotatable=0;points=[[0,0.5],[1,0.5]];portConstraint=eastwest;rounded=0;shadow=0;html=0;" vertex="1" parent="P8qwUpcXgBUsAU5qZX4Q-125">
          <mxGeometry y="110" width="320" height="24" as="geometry" />
        </mxCell>
        <mxCell id="P8qwUpcXgBUsAU5qZX4Q-129" value="+setIdentificador(id: String)" style="text;align=left;verticalAlign=top;spacingLeft=4;spacingRight=4;overflow=hidden;rotatable=0;points=[[0,0.5],[1,0.5]];portConstraint=eastwest;rounded=0;shadow=0;html=0;" vertex="1" parent="P8qwUpcXgBUsAU5qZX4Q-125">
          <mxGeometry y="134" width="320" height="24" as="geometry" />
        </mxCell>
        <mxCell id="P8qwUpcXgBUsAU5qZX4Q-130" value="+getEspecie(): String" style="text;align=left;verticalAlign=top;spacingLeft=4;spacingRight=4;overflow=hidden;rotatable=0;points=[[0,0.5],[1,0.5]];portConstraint=eastwest;rounded=0;shadow=0;html=0;" vertex="1" parent="P8qwUpcXgBUsAU5qZX4Q-125">
          <mxGeometry y="158" width="320" height="24" as="geometry" />
        </mxCell>
        <mxCell id="P8qwUpcXgBUsAU5qZX4Q-131" value="+setEspecie(especie: String)" style="text;align=left;verticalAlign=top;spacingLeft=4;spacingRight=4;overflow=hidden;rotatable=0;points=[[0,0.5],[1,0.5]];portConstraint=eastwest;rounded=0;shadow=0;html=0;" vertex="1" parent="P8qwUpcXgBUsAU5qZX4Q-125">
          <mxGeometry y="182" width="320" height="24" as="geometry" />
        </mxCell>
        <mxCell id="P8qwUpcXgBUsAU5qZX4Q-132" value="+getFechaNacimiento(): Date" style="text;align=left;verticalAlign=top;spacingLeft=4;spacingRight=4;overflow=hidden;rotatable=0;points=[[0,0.5],[1,0.5]];portConstraint=eastwest;rounded=0;shadow=0;html=0;" vertex="1" parent="P8qwUpcXgBUsAU5qZX4Q-125">
          <mxGeometry y="206" width="320" height="24" as="geometry" />
        </mxCell>
        <mxCell id="P8qwUpcXgBUsAU5qZX4Q-133" value="+setFechaNacimiento(fecha: Date)" style="text;align=left;verticalAlign=top;spacingLeft=4;spacingRight=4;overflow=hidden;rotatable=0;points=[[0,0.5],[1,0.5]];portConstraint=eastwest;rounded=0;shadow=0;html=0;" vertex="1" parent="P8qwUpcXgBUsAU5qZX4Q-125">
          <mxGeometry y="230" width="320" height="24" as="geometry" />
        </mxCell>
        <mxCell id="P8qwUpcXgBUsAU5qZX4Q-134" value="+getPadre(): Mamifero" style="text;align=left;verticalAlign=top;spacingLeft=4;spacingRight=4;overflow=hidden;rotatable=0;points=[[0,0.5],[1,0.5]];portConstraint=eastwest;rounded=0;shadow=0;html=0;" vertex="1" parent="P8qwUpcXgBUsAU5qZX4Q-125">
          <mxGeometry y="254" width="320" height="24" as="geometry" />
        </mxCell>
        <mxCell id="P8qwUpcXgBUsAU5qZX4Q-135" value="+setPadre(padre: Mamifero)" style="text;align=left;verticalAlign=top;spacingLeft=4;spacingRight=4;overflow=hidden;rotatable=0;points=[[0,0.5],[1,0.5]];portConstraint=eastwest;rounded=0;shadow=0;html=0;" vertex="1" parent="P8qwUpcXgBUsAU5qZX4Q-125">
          <mxGeometry y="278" width="320" height="24" as="geometry" />
        </mxCell>
        <mxCell id="P8qwUpcXgBUsAU5qZX4Q-136" value="+getMadre(): Mamifero" style="text;align=left;verticalAlign=top;spacingLeft=4;spacingRight=4;overflow=hidden;rotatable=0;points=[[0,0.5],[1,0.5]];portConstraint=eastwest;rounded=0;shadow=0;html=0;" vertex="1" parent="P8qwUpcXgBUsAU5qZX4Q-125">
          <mxGeometry y="302" width="320" height="24" as="geometry" />
        </mxCell>
        <mxCell id="P8qwUpcXgBUsAU5qZX4Q-137" value="+setMadre(madre: Mamifero)" style="text;align=left;verticalAlign=top;spacingLeft=4;spacingRight=4;overflow=hidden;rotatable=0;points=[[0,0.5],[1,0.5]];portConstraint=eastwest;rounded=0;shadow=0;html=0;" vertex="1" parent="P8qwUpcXgBUsAU5qZX4Q-125">
          <mxGeometry y="326" width="320" height="24" as="geometry" />
        </mxCell>
        <mxCell id="P8qwUpcXgBUsAU5qZX4Q-138" value="+getAbueloMaterno(): Mamifero" style="text;align=left;verticalAlign=top;spacingLeft=4;spacingRight=4;overflow=hidden;rotatable=0;points=[[0,0.5],[1,0.5]];portConstraint=eastwest;rounded=0;shadow=0;html=0;" vertex="1" parent="P8qwUpcXgBUsAU5qZX4Q-125">
          <mxGeometry y="350" width="320" height="24" as="geometry" />
        </mxCell>
        <mxCell id="P8qwUpcXgBUsAU5qZX4Q-139" value="+getAbuelaMaterna(): Mamifero" style="text;align=left;verticalAlign=top;spacingLeft=4;spacingRight=4;overflow=hidden;rotatable=0;points=[[0,0.5],[1,0.5]];portConstraint=eastwest;rounded=0;shadow=0;html=0;" vertex="1" parent="P8qwUpcXgBUsAU5qZX4Q-125">
          <mxGeometry y="374" width="320" height="24" as="geometry" />
        </mxCell>
        <mxCell id="P8qwUpcXgBUsAU5qZX4Q-140" value="+getAbueloPaterno(): Mamifero" style="text;align=left;verticalAlign=top;spacingLeft=4;spacingRight=4;overflow=hidden;rotatable=0;points=[[0,0.5],[1,0.5]];portConstraint=eastwest;rounded=0;shadow=0;html=0;" vertex="1" parent="P8qwUpcXgBUsAU5qZX4Q-125">
          <mxGeometry y="398" width="320" height="24" as="geometry" />
        </mxCell>
        <mxCell id="P8qwUpcXgBUsAU5qZX4Q-141" value="+getAbuelaPaterna(): Mamifero" style="text;align=left;verticalAlign=top;spacingLeft=4;spacingRight=4;overflow=hidden;rotatable=0;points=[[0,0.5],[1,0.5]];portConstraint=eastwest;rounded=0;shadow=0;html=0;" vertex="1" parent="P8qwUpcXgBUsAU5qZX4Q-125">
          <mxGeometry y="422" width="320" height="24" as="geometry" />
        </mxCell>
        <mxCell id="P8qwUpcXgBUsAU5qZX4Q-142" value="+tieneComoAncestroA(unMamifero: Mamifero): Boolean&#xa;" style="text;align=left;verticalAlign=top;spacingLeft=4;spacingRight=4;overflow=hidden;rotatable=0;points=[[0,0.5],[1,0.5]];portConstraint=eastwest;rounded=0;shadow=0;html=0;" vertex="1" parent="P8qwUpcXgBUsAU5qZX4Q-125">
          <mxGeometry y="446" width="320" height="24" as="geometry" />
        </mxCell>
        <mxCell id="P8qwUpcXgBUsAU5qZX4Q-165" style="edgeStyle=orthogonalEdgeStyle;rounded=0;orthogonalLoop=1;jettySize=auto;html=1;endSize=12;startSize=12;dashed=1;endArrow=block;endFill=0;dashPattern=8 8;" edge="1" parent="1" source="P8qwUpcXgBUsAU5qZX4Q-143" target="P8qwUpcXgBUsAU5qZX4Q-90">
          <mxGeometry relative="1" as="geometry">
            <Array as="points">
              <mxPoint x="400" y="-2820" />
              <mxPoint x="200" y="-2820" />
            </Array>
          </mxGeometry>
        </mxCell>
        <mxCell id="P8qwUpcXgBUsAU5qZX4Q-143" value="NullMamifero" style="swimlane;fontStyle=0;align=center;verticalAlign=top;childLayout=stackLayout;horizontal=1;startSize=30;horizontalStack=0;resizeParent=1;resizeLast=0;collapsible=1;marginBottom=0;rounded=0;shadow=0;strokeWidth=1;fillColor=#fff2cc;strokeColor=#d6b656;" vertex="1" parent="1">
          <mxGeometry x="240" y="-2780" width="320" height="420" as="geometry">
            <mxRectangle x="110" y="-20" width="160" height="26" as="alternateBounds" />
          </mxGeometry>
        </mxCell>
        <mxCell id="P8qwUpcXgBUsAU5qZX4Q-145" value="" style="line;html=1;strokeWidth=1;align=left;verticalAlign=middle;spacingTop=-1;spacingLeft=3;spacingRight=3;rotatable=0;labelPosition=right;points=[];portConstraint=eastwest;" vertex="1" parent="P8qwUpcXgBUsAU5qZX4Q-143">
          <mxGeometry y="30" width="320" height="8" as="geometry" />
        </mxCell>
        <mxCell id="P8qwUpcXgBUsAU5qZX4Q-146" value="+getIdentificador(): String" style="text;align=left;verticalAlign=top;spacingLeft=4;spacingRight=4;overflow=hidden;rotatable=0;points=[[0,0.5],[1,0.5]];portConstraint=eastwest;rounded=0;shadow=0;html=0;" vertex="1" parent="P8qwUpcXgBUsAU5qZX4Q-143">
          <mxGeometry y="38" width="320" height="24" as="geometry" />
        </mxCell>
        <mxCell id="P8qwUpcXgBUsAU5qZX4Q-147" value="+setIdentificador(id: String)" style="text;align=left;verticalAlign=top;spacingLeft=4;spacingRight=4;overflow=hidden;rotatable=0;points=[[0,0.5],[1,0.5]];portConstraint=eastwest;rounded=0;shadow=0;html=0;" vertex="1" parent="P8qwUpcXgBUsAU5qZX4Q-143">
          <mxGeometry y="62" width="320" height="24" as="geometry" />
        </mxCell>
        <mxCell id="P8qwUpcXgBUsAU5qZX4Q-148" value="+getEspecie(): String" style="text;align=left;verticalAlign=top;spacingLeft=4;spacingRight=4;overflow=hidden;rotatable=0;points=[[0,0.5],[1,0.5]];portConstraint=eastwest;rounded=0;shadow=0;html=0;" vertex="1" parent="P8qwUpcXgBUsAU5qZX4Q-143">
          <mxGeometry y="86" width="320" height="24" as="geometry" />
        </mxCell>
        <mxCell id="P8qwUpcXgBUsAU5qZX4Q-149" value="+setEspecie(especie: String)" style="text;align=left;verticalAlign=top;spacingLeft=4;spacingRight=4;overflow=hidden;rotatable=0;points=[[0,0.5],[1,0.5]];portConstraint=eastwest;rounded=0;shadow=0;html=0;" vertex="1" parent="P8qwUpcXgBUsAU5qZX4Q-143">
          <mxGeometry y="110" width="320" height="24" as="geometry" />
        </mxCell>
        <mxCell id="P8qwUpcXgBUsAU5qZX4Q-150" value="+getFechaNacimiento(): Date" style="text;align=left;verticalAlign=top;spacingLeft=4;spacingRight=4;overflow=hidden;rotatable=0;points=[[0,0.5],[1,0.5]];portConstraint=eastwest;rounded=0;shadow=0;html=0;" vertex="1" parent="P8qwUpcXgBUsAU5qZX4Q-143">
          <mxGeometry y="134" width="320" height="24" as="geometry" />
        </mxCell>
        <mxCell id="P8qwUpcXgBUsAU5qZX4Q-151" value="+setFechaNacimiento(fecha: Date)" style="text;align=left;verticalAlign=top;spacingLeft=4;spacingRight=4;overflow=hidden;rotatable=0;points=[[0,0.5],[1,0.5]];portConstraint=eastwest;rounded=0;shadow=0;html=0;" vertex="1" parent="P8qwUpcXgBUsAU5qZX4Q-143">
          <mxGeometry y="158" width="320" height="24" as="geometry" />
        </mxCell>
        <mxCell id="P8qwUpcXgBUsAU5qZX4Q-152" value="+getPadre(): Mamifero" style="text;align=left;verticalAlign=top;spacingLeft=4;spacingRight=4;overflow=hidden;rotatable=0;points=[[0,0.5],[1,0.5]];portConstraint=eastwest;rounded=0;shadow=0;html=0;" vertex="1" parent="P8qwUpcXgBUsAU5qZX4Q-143">
          <mxGeometry y="182" width="320" height="24" as="geometry" />
        </mxCell>
        <mxCell id="P8qwUpcXgBUsAU5qZX4Q-153" value="+setPadre(padre: Mamifero)" style="text;align=left;verticalAlign=top;spacingLeft=4;spacingRight=4;overflow=hidden;rotatable=0;points=[[0,0.5],[1,0.5]];portConstraint=eastwest;rounded=0;shadow=0;html=0;" vertex="1" parent="P8qwUpcXgBUsAU5qZX4Q-143">
          <mxGeometry y="206" width="320" height="24" as="geometry" />
        </mxCell>
        <mxCell id="P8qwUpcXgBUsAU5qZX4Q-154" value="+getMadre(): Mamifero" style="text;align=left;verticalAlign=top;spacingLeft=4;spacingRight=4;overflow=hidden;rotatable=0;points=[[0,0.5],[1,0.5]];portConstraint=eastwest;rounded=0;shadow=0;html=0;" vertex="1" parent="P8qwUpcXgBUsAU5qZX4Q-143">
          <mxGeometry y="230" width="320" height="24" as="geometry" />
        </mxCell>
        <mxCell id="P8qwUpcXgBUsAU5qZX4Q-155" value="+setMadre(madre: Mamifero)" style="text;align=left;verticalAlign=top;spacingLeft=4;spacingRight=4;overflow=hidden;rotatable=0;points=[[0,0.5],[1,0.5]];portConstraint=eastwest;rounded=0;shadow=0;html=0;" vertex="1" parent="P8qwUpcXgBUsAU5qZX4Q-143">
          <mxGeometry y="254" width="320" height="24" as="geometry" />
        </mxCell>
        <mxCell id="P8qwUpcXgBUsAU5qZX4Q-156" value="+getAbueloMaterno(): Mamifero" style="text;align=left;verticalAlign=top;spacingLeft=4;spacingRight=4;overflow=hidden;rotatable=0;points=[[0,0.5],[1,0.5]];portConstraint=eastwest;rounded=0;shadow=0;html=0;" vertex="1" parent="P8qwUpcXgBUsAU5qZX4Q-143">
          <mxGeometry y="278" width="320" height="24" as="geometry" />
        </mxCell>
        <mxCell id="P8qwUpcXgBUsAU5qZX4Q-157" value="+getAbuelaMaterna(): Mamifero" style="text;align=left;verticalAlign=top;spacingLeft=4;spacingRight=4;overflow=hidden;rotatable=0;points=[[0,0.5],[1,0.5]];portConstraint=eastwest;rounded=0;shadow=0;html=0;" vertex="1" parent="P8qwUpcXgBUsAU5qZX4Q-143">
          <mxGeometry y="302" width="320" height="24" as="geometry" />
        </mxCell>
        <mxCell id="P8qwUpcXgBUsAU5qZX4Q-158" value="+getAbueloPaterno(): Mamifero" style="text;align=left;verticalAlign=top;spacingLeft=4;spacingRight=4;overflow=hidden;rotatable=0;points=[[0,0.5],[1,0.5]];portConstraint=eastwest;rounded=0;shadow=0;html=0;" vertex="1" parent="P8qwUpcXgBUsAU5qZX4Q-143">
          <mxGeometry y="326" width="320" height="24" as="geometry" />
        </mxCell>
        <mxCell id="P8qwUpcXgBUsAU5qZX4Q-159" value="+getAbuelaPaterna(): Mamifero" style="text;align=left;verticalAlign=top;spacingLeft=4;spacingRight=4;overflow=hidden;rotatable=0;points=[[0,0.5],[1,0.5]];portConstraint=eastwest;rounded=0;shadow=0;html=0;" vertex="1" parent="P8qwUpcXgBUsAU5qZX4Q-143">
          <mxGeometry y="350" width="320" height="24" as="geometry" />
        </mxCell>
        <mxCell id="P8qwUpcXgBUsAU5qZX4Q-160" value="+tieneComoAncestroA(unMamifero: Mamifero): Boolean&#xa;" style="text;align=left;verticalAlign=top;spacingLeft=4;spacingRight=4;overflow=hidden;rotatable=0;points=[[0,0.5],[1,0.5]];portConstraint=eastwest;rounded=0;shadow=0;html=0;" vertex="1" parent="P8qwUpcXgBUsAU5qZX4Q-143">
          <mxGeometry y="374" width="320" height="24" as="geometry" />
        </mxCell>
        <mxCell id="P8qwUpcXgBUsAU5qZX4Q-168" value="madre" style="text;html=1;align=center;verticalAlign=middle;whiteSpace=wrap;rounded=0;fontSize=14;" vertex="1" parent="1">
          <mxGeometry x="-160" y="-3120" width="50" height="18.75" as="geometry" />
        </mxCell>
        <mxCell id="P8qwUpcXgBUsAU5qZX4Q-169" value="padre" style="text;html=1;align=center;verticalAlign=middle;whiteSpace=wrap;rounded=0;fontSize=14;" vertex="1" parent="1">
          <mxGeometry x="-160" y="-3080" width="50" height="18.75" as="geometry" />
        </mxCell>
        <mxCell id="P8qwUpcXgBUsAU5qZX4Q-170" value="&lt;span style=&quot;color: rgb(0, 0, 0); font-family: Helvetica; font-size: 14px; font-style: normal; font-variant-ligatures: normal; font-variant-caps: normal; font-weight: 400; letter-spacing: normal; orphans: 2; text-align: center; text-indent: 0px; text-transform: none; widows: 2; word-spacing: 0px; -webkit-text-stroke-width: 0px; white-space: normal; background-color: rgb(251, 251, 251); text-decoration-thickness: initial; text-decoration-style: initial; text-decoration-color: initial; display: inline !important; float: none;&quot;&gt;1&lt;/span&gt;" style="text;whiteSpace=wrap;html=1;" vertex="1" parent="1">
          <mxGeometry x="-100" y="-3085.62" width="20" height="30" as="geometry" />
        </mxCell>
        <mxCell id="P8qwUpcXgBUsAU5qZX4Q-172" value="&lt;span style=&quot;color: rgb(0, 0, 0); font-family: Helvetica; font-size: 14px; font-style: normal; font-variant-ligatures: normal; font-variant-caps: normal; font-weight: 400; letter-spacing: normal; orphans: 2; text-align: center; text-indent: 0px; text-transform: none; widows: 2; word-spacing: 0px; -webkit-text-stroke-width: 0px; white-space: normal; background-color: rgb(251, 251, 251); text-decoration-thickness: initial; text-decoration-style: initial; text-decoration-color: initial; display: inline !important; float: none;&quot;&gt;1&lt;/span&gt;" style="text;whiteSpace=wrap;html=1;" vertex="1" parent="1">
          <mxGeometry x="-100" y="-3125.62" width="20" height="30" as="geometry" />
        </mxCell>
        <mxCell id="P8qwUpcXgBUsAU5qZX4Q-174" value="&lt;b style=&quot;font-size: 16px;&quot;&gt;&lt;i style=&quot;font-size: 16px;&quot;&gt;NullObject&lt;/i&gt;&lt;/b&gt;" style="text;html=1;align=center;verticalAlign=middle;whiteSpace=wrap;rounded=0;fontSize=16;" vertex="1" parent="1">
          <mxGeometry x="240" y="-2800" width="90" height="20" as="geometry" />
        </mxCell>
        <mxCell id="P8qwUpcXgBUsAU5qZX4Q-175" value="&lt;b style=&quot;font-size: 16px;&quot;&gt;&lt;i style=&quot;font-size: 16px;&quot;&gt;RealObject&lt;/i&gt;&lt;/b&gt;" style="text;html=1;align=center;verticalAlign=middle;whiteSpace=wrap;rounded=0;fontSize=16;" vertex="1" parent="1">
          <mxGeometry x="-160" y="-2800" width="90" height="20" as="geometry" />
        </mxCell>
        <mxCell id="P8qwUpcXgBUsAU5qZX4Q-176" value="&lt;b style=&quot;font-size: 16px;&quot;&gt;&lt;i style=&quot;font-size: 16px;&quot;&gt;AbstractObject&lt;/i&gt;&lt;/b&gt;" style="text;html=1;align=center;verticalAlign=middle;whiteSpace=wrap;rounded=0;fontSize=16;" vertex="1" parent="1">
          <mxGeometry y="-3320" width="130" height="20" as="geometry" />
        </mxCell>
      </root>
    </mxGraphModel>
  </diagram>
</mxfile>
